<?xml version="1.0" encoding="utf-8"?>
<!-- Generator: Adobe Illustrator 28.0.0, SVG Export Plug-In . SVG Version: 6.00 Build 0)  -->
<svg version="1.1" id="Laag_2" xmlns="http://www.w3.org/2000/svg" xmlns:xlink="http://www.w3.org/1999/xlink" x="0px" y="0px"
	 viewBox="0 0 4961 3508" style="enable-background:new 0 0 4961 3508;" xml:space="preserve">
<style type="text/css">
	.st0{fill:none;stroke:#000000;stroke-width:5;stroke-miterlimit:10;}
	.st1{fill:none;stroke:#000000;stroke-width:11;stroke-miterlimit:10;}
	.st2{fill:none;stroke:#000000;stroke-width:7;stroke-miterlimit:10;}
</style>
<g>
	<g>
		<path class="st0" d="M2663.4,3083l-208.8-21.9c0,0-33.4,65.2-17.6,143.4l220.6,18.7c0,0-12.6-37.5-10.8-76.2
			C2648.6,3108.4,2663.4,3083,2663.4,3083z"/>
		<path class="st0" d="M2663.4,3083l17.9,13.2c0,0-5.2,26-4.1,55.3c1.1,29.2,4.3,55,4.3,55l-24,16.8
			C2657.6,3223.2,2634.6,3145.3,2663.4,3083z"/>
		<path class="st0" d="M2681.5,3098.2c0,0,11.4,52.5,1.2,106.2C2682.6,3204.4,2671.4,3122.6,2681.5,3098.2z"/>
		<path class="st0" d="M2455.2,3061c0,0-7.4,5.4-12.2,5.8c0,0-31,65-13.9,128.7c0,0,6.7,2,8.6,6.6
			C2439.7,3206.7,2418,3131.4,2455.2,3061z"/>
	</g>
	<path class="st1" d="M3020.5,498.5c-137,122-324,38-400,19s-362-104-451-137S1862,326,1862,326l705-75c479-68,478,171,478,171
		l-82,2195c0,0-147.5,233.7-482.5,206.1l37-2235.6c0,0-503.3-263.2-649.6-192.6"/>
	<path class="st1" d="M1816.5,324.5c0,0,72,169,45.5,244.5c0,0-581.5,249.5-845.5,155.5l99,1957l746.5-404.3V616.1"/>
	<line class="st1" x1="2376.5" y1="559.5" x2="2379.8" y2="1305.5"/>
	<g>
		<path class="st2" d="M1995.5,1957.5c0,0,33.3,11.8,64.5,23.8l0.5-0.8L1995.5,1957.5z"/>
		<path class="st2" d="M2397.3,2725.4l-47.7,26.4c49.1,34.1,56.2,101.5,56.2,101.5l48.8-27C2439.6,2758,2397.3,2725.4,2397.3,2725.4
			z"/>
		<path class="st2" d="M2378.1,2781.8c-11.4-18-28.4-31.6-48.1-38.3l8.5-5l61-80l54-0.1l17.2-1284.7l-57.2-99.2l-164,151
			c0,0,79,123,131,151s0,94,0,94l-56-52l14,75h-136.4c0,0-38.4,12.3,0,53.7s38.4,41.3,38.4,41.3l-80.8-41.3v41.3
			c0,0,99.8,50,122.8,46s-95,29-95,29s-93.3-33-93.7,0c-0.3,33,14.7,79,42.7,84s-9.3,61.7-42.7,47.4c-9.5-4.1-21.5-8.9-33.8-13.6
			l-32.5,51.2l33,61l-65-23.3l-43-56.7l-61,33l-99-19v42.7l-47-23.7l-75,5l-61,113l150,103h-112.7l-37.3,56.8v47.1h-52.1
			c0,0,23.1,76.2,56.1,85.2s-82.5,0-82.5,0l-110.5,23l21.7,84.8h-96.6l-52.1,66.2c0,0-38,61.4,0,103.2l-42,51.8l24,61
			c0,0,52,42,122,33s99-23,99-23l-54.3,56v42.4h72.8l0.5,89.6l-29,47c0,0-88,57-84,85s61,89,61,89h46.8l132.2,75l164-33l-81.8-65.6
			l-59.2-47.4h75c0,0,141.1,183,174.5,146c33.5-37,127.5-80,127.5-80l-123-42l10-99l-29-52c0,0,33.1-15.6,55.6-45.9
			c0.8,6.7,3.3,11.8,9.4,13.6c16.9,4.9,28.4,12.8,29,26.7c0.6,13.9-1.5,41.7,18.7,46.6c21.9,5.3,77.1-23.2,95.7-45.8
			c22.3-27.1,67.8-70.3,140.6-106.3c8.6-4.2,26.3-11.2,35.7-12.6c23-3.4,61-15.3,81.7-28.6c7-4.5,12.9-10.8,17.9-17.7
			c18.1-25.2,20.6-58.5,8.4-87C2389.2,2801.4,2384.3,2791.5,2378.1,2781.8z M2065.6,2879.4c1-17.5-8.9-36-37.7-54h89.4h66.2
			C2155.3,2843.9,2105.3,2865,2065.6,2879.4z"/>
	</g>
	<g>
		<path class="st0" d="M2210.7,3148.5l211.5,181.1c0,0,85.6-46.1,127.2-143.4l-226.8-186.5c0,0-14.5,50.5-45.5,91.4
			C2246,3132,2210.7,3148.5,2210.7,3148.5z"/>
		<path class="st0" d="M2210.7,3148.5l-9.6-27.9c0,0,25.2-24.5,46-57.3c20.8-32.8,36.7-63.4,36.7-63.4l38.8-0.3
			C2322.6,2999.7,2289,3102.1,2210.7,3148.5z"/>
		<path class="st0" d="M2202.4,3118.3c0,0,27.1-65.8,78.7-116.9C2281.1,3001.5,2231.9,3099.2,2202.4,3118.3z"/>
		<path class="st0" d="M2421.5,3329.2c0,0,12.1-0.3,17.6,2.9c0,0,82.8-47.7,112.1-130.1c0,0-5.8-7.2-4.4-13.7
			C2548.2,3181.9,2515.1,3280.4,2421.5,3329.2z"/>
	</g>
</g>
</svg>
